<svg width="18" height="18" viewBox="0 0 18 18" fill="none" xmlns="http://www.w3.org/2000/svg">
<path fill-rule="evenodd" clip-rule="evenodd" d="M3.9375 9C3.9375 8.70163 4.05603 8.41548 4.267 8.20451C4.47798 7.99353 4.76413 7.875 5.0625 7.875H9.5625C9.86087 7.875 10.147 7.99353 10.358 8.20451C10.569 8.41548 10.6875 8.70163 10.6875 9C10.6875 9.29837 10.569 9.58452 10.358 9.79549C10.147 10.0065 9.86087 10.125 9.5625 10.125H5.0625C4.76413 10.125 4.47798 10.0065 4.267 9.79549C4.05603 9.58452 3.9375 9.29837 3.9375 9Z" fill="white"/>
<path fill-rule="evenodd" clip-rule="evenodd" d="M15.9931 7.53094C16.2559 7.67624 16.475 7.88932 16.6276 8.14801C16.7802 8.4067 16.8607 8.70154 16.8607 9.00188C16.8607 9.30221 16.7802 9.59705 16.6276 9.85574C16.475 10.1144 16.2559 10.3275 15.9931 10.4728L4.12209 17.1261C3.82134 17.2968 3.47542 17.371 3.13112 17.3386C2.78683 17.3062 2.46079 17.1689 2.19713 16.9451C1.93347 16.7213 1.74493 16.422 1.65701 16.0875C1.56909 15.7531 1.58605 15.3997 1.70559 15.0752L3.87796 9.00131L1.70671 2.92856C1.58789 2.60448 1.5713 2.25176 1.6592 1.91796C1.74709 1.58416 1.93524 1.28535 2.19825 1.06181C2.46127 0.838276 2.78651 0.700775 3.13012 0.667851C3.47372 0.634928 3.81916 0.708166 4.11984 0.877689L15.9931 7.53094ZM14.0153 9.00131L4.32571 3.57094L6.06384 8.43094C6.19771 8.79994 6.19771 9.20381 6.06384 9.57281L4.32571 14.4328L14.0142 9.00131H14.0153Z" fill="white"/>
</svg>
